<svg width="75" height="75" viewBox="0 0 75 75" fill="none" xmlns="http://www.w3.org/2000/svg">
<path d="M27.4393 24.9626V20.6168C27.4393 19.9253 27.714 19.2621 28.203 18.7731C28.692 18.2841 29.3552 18.0094 30.0467 18.0094C30.7383 18.0094 31.4015 18.2841 31.8905 18.7731C32.3795 19.2621 32.6542 19.9253 32.6542 20.6168V24.9626C32.6542 25.6542 32.3795 26.3174 31.8905 26.8064C31.4015 27.2954 30.7383 27.5701 30.0467 27.5701C29.3552 27.5701 28.692 27.2954 28.203 26.8064C27.714 26.3174 27.4393 25.6542 27.4393 24.9626ZM43.9533 48.4299C43.2617 48.4299 42.5985 48.7046 42.1095 49.1936C41.6205 49.6826 41.3458 50.3458 41.3458 51.0374V55.3832C41.3458 56.0747 41.6205 56.7379 42.1095 57.2269C42.5985 57.7159 43.2617 57.9906 43.9533 57.9906C44.6448 57.9906 45.308 57.7159 45.797 57.2269C46.286 56.7379 46.5607 56.0747 46.5607 55.3832V51.0374C46.5607 50.3458 46.286 49.6826 45.797 49.1936C45.308 48.7046 44.6448 48.4299 43.9533 48.4299ZM19.6168 33.6542H23.9626C24.6542 33.6542 25.3174 33.3795 25.8064 32.8905C26.2954 32.4015 26.5701 31.7383 26.5701 31.0467C26.5701 30.3552 26.2954 29.692 25.8064 29.203C25.3174 28.714 24.6542 28.4393 23.9626 28.4393H19.6168C18.9253 28.4393 18.2621 28.714 17.7731 29.203C17.2841 29.692 17.0094 30.3552 17.0094 31.0467C17.0094 31.7383 17.2841 32.4015 17.7731 32.8905C18.2621 33.3795 18.9253 33.6542 19.6168 33.6542V33.6542ZM54.3832 42.3458H50.0374C49.3458 42.3458 48.6826 42.6205 48.1936 43.1095C47.7046 43.5985 47.4299 44.2617 47.4299 44.9533C47.4299 45.6448 47.7046 46.308 48.1936 46.797C48.6826 47.286 49.3458 47.5607 50.0374 47.5607H54.3832C55.0747 47.5607 55.7379 47.286 56.2269 46.797C56.7159 46.308 56.9906 45.6448 56.9906 44.9533C56.9906 44.2617 56.7159 43.5985 56.2269 43.1095C55.7379 42.6205 55.0747 42.3458 54.3832 42.3458ZM34.197 49.4077L32.6108 50.9939C31.4697 52.135 29.9221 52.776 28.3084 52.776C26.6947 52.776 25.1471 52.135 24.0061 50.9939C22.865 49.8529 22.224 48.3053 22.224 46.6916C22.224 45.0779 22.865 43.5303 24.0061 42.3892L25.5923 40.803C26.0821 40.3132 26.3573 39.6488 26.3573 38.9561C26.3573 38.2633 26.0821 37.599 25.5923 37.1091C25.1025 36.6193 24.4381 36.3441 23.7453 36.3441C23.0526 36.3441 22.3882 36.6193 21.8984 37.1091L20.3122 38.6953C18.1914 40.8161 17 43.6924 17 46.6916C17 49.6908 18.1914 52.5671 20.3122 54.6878C22.4329 56.8086 25.3092 58 28.3084 58C31.3076 58 34.1839 56.8086 36.3047 54.6878L37.8909 53.1016C38.3807 52.6118 38.6559 51.9474 38.6559 51.2547C38.6559 50.5619 38.3807 49.8975 37.8909 49.4077C37.401 48.9179 36.7367 48.6427 36.0439 48.6427C35.3512 48.6427 34.6868 48.9179 34.197 49.4077V49.4077ZM49.9939 25.0061C51.1297 26.1499 51.7672 27.6965 51.7672 29.3084C51.7672 30.9204 51.1297 32.4669 49.9939 33.6108L48.4077 35.197C48.0417 35.5616 47.7924 36.0268 47.6912 36.5335C47.5901 37.0401 47.6417 37.5654 47.8396 38.0426C48.0375 38.5199 48.3727 38.9276 48.8027 39.214C49.2327 39.5004 49.738 39.6527 50.2547 39.6514C50.945 39.6439 51.6061 39.3717 52.1016 38.8909L53.6878 37.3047C55.8086 35.1839 57 32.3076 57 29.3084C57 26.3092 55.8086 23.4329 53.6878 21.3122C51.5671 19.1914 48.6908 18 45.6916 18C42.6924 18 39.8161 19.1914 37.6953 21.3122L36.1091 22.8984C35.6193 23.3882 35.3441 24.0526 35.3441 24.7453C35.3441 25.4381 35.6193 26.1025 36.1091 26.5923C36.599 27.0821 37.2633 27.3573 37.9561 27.3573C38.6488 27.3573 39.3132 27.0821 39.803 26.5923L41.3892 25.0061C42.5331 23.8703 44.0796 23.2328 45.6916 23.2328C47.3035 23.2328 48.8501 23.8703 49.9939 25.0061V25.0061Z" fill="#F2F2F2"/>
</svg>
