<svg width="75" height="75" fill="#f2f2f280" viewBox="0 0 75 75" xmlns="http://www.w3.org/2000/svg">
<path d="M72.6563 58.5938C72.6563 55.8125 71.8315 53.0936 70.2863 50.7811C68.7411 48.4685 66.5448 46.6661 63.9752 45.6017C61.4057 44.5373 58.5782 44.2589 55.8503 44.8015C53.1224 45.3441 50.6167 46.6834 48.6501 48.6501C46.6834 50.6167 45.3441 53.1224 44.8015 55.8503C44.2589 58.5782 44.5373 61.4057 45.6017 63.9752C46.6661 66.5448 48.4685 68.7411 50.7811 70.2863C53.0936 71.8315 55.8125 72.6563 58.5938 72.6563C62.322 72.6519 65.8964 71.1689 68.5327 68.5327C71.1689 65.8964 72.6519 62.322 72.6563 58.5938V58.5938ZM67.9688 58.5938C67.96 60.262 67.5009 61.8969 66.6399 63.3258L53.8617 50.5477C55.2907 49.6867 56.9255 49.2276 58.5938 49.2188C61.0792 49.2219 63.462 50.2106 65.2195 51.9681C66.9769 53.7255 67.9657 56.1083 67.9688 58.5938ZM49.2188 58.5938C49.2275 56.9255 49.6866 55.2906 50.5477 53.8617L63.3258 66.6399C61.8969 67.5008 60.262 67.9599 58.5938 67.9688C56.1083 67.9657 53.7255 66.9769 51.9681 65.2195C50.2106 63.462 49.2219 61.0792 49.2188 58.5938Z" />
<path d="M45.9141 37.5L39.8438 43.5703L43.1719 46.875L52.5469 37.5L43.1719 28.125L39.8438 31.4297L45.9141 37.5Z" />
<path d="M24.3984 37.5L30.4688 31.4297L27.1406 28.125L17.7656 37.5L27.1406 46.875L30.4688 43.5703L24.3984 37.5Z" />
<path d="M9.375 21.0938H60.9375V37.5H65.625V9.375C65.625 8.1318 65.1311 6.93951 64.2521 6.06044C63.373 5.18136 62.1807 4.6875 60.9375 4.6875H9.375C8.1318 4.6875 6.93951 5.18136 6.06044 6.06044C5.18136 6.93951 4.6875 8.1318 4.6875 9.375V56.25C4.6875 57.4932 5.18136 58.6855 6.06044 59.5646C6.93951 60.4436 8.1318 60.9375 9.375 60.9375H37.5V56.25H9.375V21.0938ZM9.375 9.375H60.9375V16.4062H9.375V9.375Z" />
</svg>
