<svg width="15" height="15" viewBox="0 0 15 15" xmlns="http://www.w3.org/2000/svg">
<path d="M12.6309 6.60448H12.263V3.22838C12.263 2.97862 12.1673 2.73909 11.997 2.56248C11.8266 2.38587 11.5956 2.28666 11.3547 2.28666H8.62954C8.60082 1.71983 8.38085 1.1815 8.00807 0.765773C7.6353 0.350048 7.13345 0.0833771 6.59025 0.0123793C6.27955 -0.020783 5.96559 0.0128568 5.668 0.111196C5.37041 0.209535 5.09559 0.370459 4.86072 0.583909C4.62584 0.797358 4.43596 1.05874 4.30295 1.35172C4.16994 1.6447 4.09666 1.96298 4.08768 2.28666H0.908373C0.667457 2.28666 0.436409 2.38587 0.266056 2.56248C0.0957033 2.73909 0 2.97862 0 3.22838V7.07535H1.27626C1.62574 7.06482 1.96671 7.18818 2.23399 7.42184C2.50127 7.65551 2.67612 7.98309 2.72512 8.34197C2.7428 8.53888 2.7204 8.73745 2.65938 8.92482C2.59835 9.11218 2.50005 9.28418 2.37085 9.42967C2.24387 9.57686 2.08853 9.69482 1.91486 9.77592C1.74118 9.85702 1.55304 9.89948 1.36256 9.90054H0V14.0583C0 14.308 0.0957033 14.5476 0.266056 14.7242C0.436409 14.9008 0.667457 15 0.908373 15H11.3547C11.5956 15 11.8266 14.9008 11.997 14.7242C12.1673 14.5476 12.263 14.308 12.263 14.0583V11.3131H12.7172C13.036 11.3149 13.3515 11.247 13.6433 11.1139C13.9351 10.9809 14.1966 10.7857 14.4108 10.541C14.625 10.2962 14.7871 10.0075 14.8866 9.69353C14.9861 9.37956 15.0207 9.04741 14.9882 8.71867C14.9145 8.12752 14.6335 7.58519 14.1987 7.19522C13.7639 6.80524 13.2058 6.59495 12.6309 6.60448V6.60448Z" />
</svg>
