<svg width="45" height="45" viewBox="0 0 45 45" fill="none" xmlns="http://www.w3.org/2000/svg">
<path d="M42.5246 2.47535C40.8737 0.824366 38.8871 0 36.5626 0H8.43736C6.11292 0 4.12633 0.824366 2.47535 2.47535C0.824366 4.12633 0 6.11292 0 8.43736V36.5626C0 38.8871 0.824366 40.8737 2.47535 42.5246C4.12633 44.1756 6.11292 45 8.43736 45H15.0007C15.4287 45 15.7508 44.9842 15.967 44.9549C16.2186 44.9045 16.4457 44.7703 16.6112 44.5743C16.8252 44.3491 16.9333 44.0225 16.9333 43.5945L16.9175 41.6012C16.9085 40.3308 16.904 39.3263 16.904 38.583L16.2283 38.7001C15.8003 38.779 15.2598 38.8128 14.6043 38.8037C13.9212 38.7911 13.2402 38.7226 12.5682 38.5988C11.8529 38.4667 11.1794 38.1655 10.6041 37.7204C10.0016 37.2645 9.55222 36.636 9.31578 35.9185L9.02297 35.2428C8.77618 34.7097 8.46613 34.2084 8.0995 33.7494C7.68056 33.2021 7.25487 32.8327 6.82467 32.6368L6.62195 32.4904C6.4806 32.3891 6.35203 32.2711 6.23905 32.139C6.13114 32.0163 6.04231 31.8782 5.97552 31.7291C5.91696 31.5917 5.96651 31.4791 6.12193 31.3912C6.27959 31.3011 6.56114 31.2583 6.97332 31.2583L7.55894 31.3484C7.9486 31.425 8.43285 31.6592 9.00721 32.0489C9.58845 32.4452 10.074 32.9661 10.4284 33.5737C10.8789 34.3733 11.4195 34.9837 12.0547 35.4049C12.6898 35.8239 13.3295 36.0356 13.9737 36.0356C14.6178 36.0356 15.1742 35.986 15.6449 35.8892C16.1002 35.7951 16.5425 35.6468 16.9626 35.4477C17.1382 34.1413 17.6157 33.1323 18.3973 32.4296C17.3846 32.3303 16.3809 32.1541 15.3949 31.9025C14.4327 31.6382 13.5073 31.2545 12.6403 30.7605C11.7331 30.2667 10.9319 29.5993 10.282 28.7965C9.65814 28.0149 9.1446 26.9901 8.74368 25.722C8.34501 24.4517 8.14455 22.9854 8.14455 21.3254C8.14455 18.9627 8.91486 16.9513 10.4577 15.2891C9.73697 13.5142 9.80454 11.5208 10.6627 9.31578C11.2303 9.13785 12.0704 9.27073 13.1831 9.70994C14.2958 10.1492 15.1111 10.5253 15.6292 10.8361C16.1472 11.1515 16.5616 11.415 16.8747 11.629C18.7058 11.1194 20.5982 10.8632 22.4989 10.8677C24.4337 10.8677 26.3076 11.1222 28.1253 11.629L29.2379 10.9262C30.0938 10.4124 30.9966 9.98096 31.934 9.63787C32.9701 9.24596 33.7584 9.1401 34.308 9.31578C35.1864 11.5231 35.263 13.5142 34.54 15.2913C36.0829 16.9513 36.8554 18.9627 36.8554 21.3276C36.8554 22.9876 36.655 24.4584 36.2541 25.7355C35.8554 27.0149 35.3374 28.0397 34.7022 28.8123C34.0409 29.6048 33.2363 30.2658 32.3304 30.7605C31.3845 31.2876 30.4655 31.6682 29.5758 31.9025C28.5899 32.1549 27.5862 32.3318 26.5734 32.4318C27.587 33.3102 28.096 34.6954 28.096 36.5897V43.5945C28.096 43.9256 28.1433 44.1936 28.2424 44.3986C28.288 44.4974 28.3529 44.5859 28.4334 44.6591C28.5139 44.7322 28.6082 44.7884 28.7109 44.8243C28.9271 44.9009 29.1163 44.9504 29.283 44.9685C29.4497 44.991 29.6884 44.9977 29.9992 44.9977H36.5626C38.8871 44.9977 40.8737 44.1734 42.5246 42.5224C44.1734 40.8737 45 38.8848 45 36.5604V8.43736C45 6.11292 44.1734 4.12633 42.5224 2.47535H42.5246Z" fill="#262626"/>
</svg>
