<svg width="45" height="45" viewBox="0 0 45 45" fill="none" xmlns="http://www.w3.org/2000/svg">
<path fill-rule="evenodd" clip-rule="evenodd" d="M5.56486e-07 3.75955C5.56486e-07 2.76246 0.396094 1.8062 1.10115 1.10115C1.8062 0.396099 2.76245 5.012e-06 3.75955 5.012e-06H41.2364C41.7305 -0.000802025 42.2199 0.095861 42.6766 0.28446C43.1334 0.473058 43.5484 0.749889 43.898 1.0991C44.2476 1.44831 44.5249 1.86305 44.714 2.31957C44.9031 2.77609 45.0003 3.26542 45 3.75955V41.2364C45.0005 41.7306 44.9036 42.2201 44.7148 42.6768C44.526 43.1335 44.249 43.5486 43.8996 43.8981C43.5502 44.2477 43.1353 44.5249 42.6787 44.714C42.2221 44.9031 41.7326 45.0003 41.2384 45H3.75955C3.26566 45 2.77662 44.9027 2.32036 44.7136C1.86409 44.5246 1.44956 44.2475 1.10042 43.8981C0.75129 43.5488 0.474406 43.1341 0.285592 42.6777C0.0967771 42.2214 -0.00026815 41.7323 5.56486e-07 41.2384V3.75955ZM17.8118 17.1573H23.9052V20.2173C24.7848 18.4582 27.0348 16.875 30.4159 16.875C36.8979 16.875 38.4341 20.3789 38.4341 26.8077V38.7164H31.8743V28.2723C31.8743 24.6109 30.9948 22.545 28.7611 22.545C25.6623 22.545 24.3736 24.7725 24.3736 28.2723V38.7164H17.8118V17.1573ZM6.56182 38.4361H13.1236V16.875H6.56182V38.4341V38.4361ZM14.0625 9.84273C14.0749 10.4046 13.9749 10.9632 13.7684 11.4859C13.562 12.0085 13.2532 12.4847 12.8602 12.8864C12.4673 13.2882 11.998 13.6073 11.48 13.8252C10.962 14.0432 10.4057 14.1554 9.84375 14.1554C9.28178 14.1554 8.72548 14.0432 8.20748 13.8252C7.68948 13.6073 7.22023 13.2882 6.82725 12.8864C6.43428 12.4847 6.12551 12.0085 5.91905 11.4859C5.7126 10.9632 5.61263 10.4046 5.625 9.84273C5.64928 8.73993 6.10442 7.69049 6.89295 6.91913C7.68147 6.14778 8.74068 5.71586 9.84375 5.71586C10.9468 5.71586 12.006 6.14778 12.7946 6.91913C13.5831 7.69049 14.0382 8.73993 14.0625 9.84273Z" fill="#262626"/>
</svg>
