<svg width="45" height="45" viewBox="0 0 45 45" fill="none" xmlns="http://www.w3.org/2000/svg">
<rect width="45" height="45" fill="#262626"/>
<path d="M12.6 11.55C12.6 10.5555 12.9951 9.60166 13.6983 8.8984C14.4016 8.19514 15.3554 7.80005 16.35 7.80005H27.6C28.5946 7.80005 29.5484 8.19514 30.2516 8.8984C30.9549 9.60166 31.35 10.5555 31.35 11.55V34.0501C31.35 35.0446 30.9549 35.9984 30.2516 36.7017C29.5484 37.405 28.5946 37.8001 27.6 37.8001H16.35C15.3554 37.8001 14.4016 37.405 13.6983 36.7017C12.9951 35.9984 12.6 35.0446 12.6 34.0501V11.55ZM23.85 32.1751C23.85 31.6778 23.6525 31.2009 23.3008 30.8492C22.9492 30.4976 22.4723 30.3001 21.975 30.3001C21.4777 30.3001 21.0008 30.4976 20.6492 30.8492C20.2975 31.2009 20.1 31.6778 20.1 32.1751C20.1 32.6723 20.2975 33.1492 20.6492 33.5009C21.0008 33.8525 21.4777 34.0501 21.975 34.0501C22.4723 34.0501 22.9492 33.8525 23.3008 33.5009C23.6525 33.1492 23.85 32.6723 23.85 32.1751Z" fill="#F2F2F2"/>
</svg>
