<svg width="15" height="16" viewBox="0 0 15 16" fill="none" xmlns="http://www.w3.org/2000/svg">
<path d="M4.03141 11.7095L4.96887 10.4385L1.95101 7.81917L4.96887 5.19983L4.03141 3.92881L0.281589 7.18366C0.193727 7.25989 0.122797 7.35659 0.0740532 7.4666C0.0253093 7.57661 0 7.69711 0 7.81917C0 7.94124 0.0253093 8.06173 0.0740532 8.17174C0.122797 8.28175 0.193727 8.37845 0.281589 8.45468L4.03141 11.7095ZM10.9686 3.92881L10.0311 5.19983L13.049 7.81917L10.0311 10.4385L10.9686 11.7095L14.7184 8.45468C14.8063 8.37845 14.8772 8.28175 14.9259 8.17174C14.9747 8.06173 15 7.94124 15 7.81917C15 7.69711 14.9747 7.57661 14.9259 7.4666C14.8772 7.35659 14.8063 7.25989 14.7184 7.18366L10.9686 3.92881ZM9.7319 0.671511L6.73204 15.3184L5.26735 14.9652L8.26721 0.318359L9.7319 0.671511Z" fill="#F2F2F2" fill-opacity="0.5"/>
</svg>
