<svg width="45" height="45" viewBox="0 0 45 45" fill="none" xmlns="http://www.w3.org/2000/svg">
<path d="M22.6075 9.81254C19.307 9.81585 16.1426 11.1283 13.8086 13.4618C11.4745 15.7954 10.1615 18.9595 10.1575 22.26C10.155 24.61 10.815 26.9 12.06 28.8825L12.355 29.3525L11.0975 33.945L15.81 32.71L16.2625 32.98C18.1813 34.1157 20.3703 34.7141 22.6 34.7125H22.6025C25.9019 34.7079 29.0649 33.3953 31.3982 31.0625C33.7315 28.7297 35.0447 25.567 35.05 22.2675C35.0557 20.6321 34.7369 19.0118 34.1121 17.5004C33.4873 15.989 32.5689 14.6165 31.41 13.4625C30.2571 12.3022 28.8855 11.382 27.3745 10.7555C25.8635 10.129 24.2432 9.80846 22.6075 9.81254V9.81254ZM29.9275 27.6075C29.615 28.4825 28.12 29.2775 27.4025 29.385C26.6159 29.5207 25.8085 29.4701 25.045 29.2375C24.3206 29.0132 23.6088 28.7504 22.9125 28.45C19.1575 26.83 16.7075 23.0525 16.5175 22.8C16.3325 22.55 14.9925 20.77 14.9925 18.93C14.9925 17.0875 15.9575 16.1825 16.3 15.8075C16.4258 15.6654 16.5795 15.5508 16.7515 15.4708C16.9236 15.3908 17.1103 15.3471 17.3 15.3425C17.55 15.3425 17.7975 15.345 18.0175 15.355C18.2475 15.365 18.555 15.2675 18.8575 15.9975C19.17 16.7475 19.92 18.5875 20.0125 18.775C20.105 18.96 20.1675 19.18 20.045 19.43C19.92 19.6825 19.86 19.835 19.67 20.055C19.485 20.275 19.2775 20.5425 19.11 20.7125C18.9225 20.8975 18.7275 21.1 18.945 21.475C19.165 21.8475 19.915 23.075 21.025 24.0675C22.455 25.3425 23.6625 25.735 24.035 25.925C24.41 26.11 24.6275 26.0825 24.8475 25.83C25.065 25.5775 25.7825 24.7375 26.0325 24.365C26.2825 23.99 26.53 24.0525 26.875 24.175C27.2175 24.3025 29.0575 25.205 29.43 25.3925C29.8 25.5775 30.0525 25.6725 30.1475 25.83C30.2375 25.985 30.2375 26.7325 29.9275 27.6075V27.6075Z" fill="#262626"/>
<path d="M42.5 0H2.5C1.83696 0 1.20107 0.263392 0.732233 0.732233C0.263392 1.20107 0 1.83696 0 2.5V42.5C0 43.163 0.263392 43.7989 0.732233 44.2678C1.20107 44.7366 1.83696 45 2.5 45H42.5C43.163 45 43.7989 44.7366 44.2678 44.2678C44.7366 43.7989 45 43.163 45 42.5V2.5C45 1.83696 44.7366 1.20107 44.2678 0.732233C43.7989 0.263392 43.163 0 42.5 0V0ZM22.6 37.24H22.595C20.0951 37.2403 17.6351 36.6137 15.44 35.4175L7.5 37.5L9.625 29.74C8.31245 27.4631 7.62216 24.8808 7.62344 22.2527C7.62473 19.6245 8.31756 17.0429 9.63234 14.7673C10.9471 12.4916 12.8376 10.602 15.1138 9.2882C17.39 7.97439 19.9718 7.28267 22.6 7.2825C24.5688 7.27706 26.5191 7.66251 28.3379 8.41653C30.1566 9.17054 31.8076 10.2781 33.195 11.675C34.5889 13.0634 35.6935 14.7145 36.4449 16.5327C37.1963 18.3509 37.5796 20.3001 37.5725 22.2675C37.5665 26.2366 35.9872 30.0415 33.1806 32.8481C30.374 35.6547 26.5691 37.234 22.6 37.24V37.24Z" fill="#262626"/>
</svg>
